<svg xmlns="http://www.w3.org/2000/svg" viewBox="0 0 512 512" role="img" aria-label="Bochog Kakei">
  <rect width="512" height="512" rx="112" fill="#1e4d8c"/>
  <rect x="118" y="148" width="276" height="232" rx="28" fill="#f4f8fc"/>
  <rect x="118" y="148" width="276" height="56" rx="28" fill="#7eb0e0"/>
  <rect x="118" y="176" width="276" height="28" fill="#7eb0e0"/>
  <path fill="#1e4d8c" d="M256 214c-28 0-46 14-52 34h28c4-8 12-14 24-14 14 0 24 8 24 20 0 10-8 16-22 18l-20 4v24h20v18h-20v22h28v-22h18v-18h-18c22-6 36-20 36-42 0-28-22-44-46-44z"/>
</svg>
